<?xml version="1.0" encoding="UTF-8" standalone="no"?>
<!-- Created with Inkscape (http://www.inkscape.org/) -->

<svg
   xmlns:dc="http://purl.org/dc/elements/1.1/"
   xmlns:cc="http://creativecommons.org/ns#"
   xmlns:rdf="http://www.w3.org/1999/02/22-rdf-syntax-ns#"
   xmlns:svg="http://www.w3.org/2000/svg"
   xmlns="http://www.w3.org/2000/svg"
   xmlns:sodipodi="http://sodipodi.sourceforge.net/DTD/sodipodi-0.dtd"
   xmlns:inkscape="http://www.inkscape.org/namespaces/inkscape"
   width="305.11774"
   height="325.82239"
   id="svg3873"
   version="1.1"
   inkscape:version="0.48.5 r10040"
   sodipodi:docname="GFBI-logo-bg.svg">
  <defs
     id="defs3875" />
  <sodipodi:namedview
     id="base"
     pagecolor="#ffffff"
     bordercolor="#666666"
     borderopacity="1.0"
     inkscape:pageopacity="0.0"
     inkscape:pageshadow="2"
     inkscape:zoom="1.4"
     inkscape:cx="144.77907"
     inkscape:cy="165.90485"
     inkscape:document-units="px"
     inkscape:current-layer="layer1"
     showgrid="false"
     inkscape:window-width="1292"
     inkscape:window-height="735"
     inkscape:window-x="380"
     inkscape:window-y="102"
     inkscape:window-maximized="0"
     fit-margin-top="0"
     fit-margin-left="0"
     fit-margin-right="0"
     fit-margin-bottom="0" />
  <metadata
     id="metadata3878">
    <rdf:RDF>
      <cc:Work
         rdf:about="">
        <dc:format>image/svg+xml</dc:format>
        <dc:type
           rdf:resource="http://purl.org/dc/dcmitype/StillImage" />
        <dc:title></dc:title>
      </cc:Work>
    </rdf:RDF>
  </metadata>
  <g
     inkscape:label="Layer 1"
     inkscape:groupmode="layer"
     id="layer1"
     transform="translate(-217.53478,-224.97829)">
    <path
       style="fill:#ecf6fb"
       d="m 346.143,546.07475 c 9.89988,-15.10912 12.72632,-69.38356 5.1178,-98.27404 -5.14888,-19.5509 -13.30576,-37.34916 -24.30016,-53.02274 -12.2759,-17.50048 -21.822,-22.4034 -21.822,-11.20786 0,5.2352 -6.55494,12.03782 -14.5,15.04788 -5.09168,1.92902 -5.5,1.71142 -5.5,-2.93102 0,-2.7581 1.31014,-8.15036 2.91144,-11.98278 2.22774,-5.33176 4.43662,-7.2731 9.40638,-8.26704 5.5332,-1.10664 5.9165,-1.52528 2.58856,-2.82714 -10.75946,-4.20904 -24.49046,0.8095 -30.99044,11.3267 -3.6817,5.95714 -10.20538,23.12632 -16.13634,42.46804 -1.77466,5.78738 -11.47914,14.36456 -16.2796,14.38848 -2.50236,0.012 -1.68796,-7.44182 1.75242,-16.04018 2.3084,-5.76926 5.43218,-9.24062 10.7623,-11.95984 6.07256,-3.098 7.77564,-5.2821 8.8985,-11.41188 0.76376,-4.16934 3.57072,-11.51898 6.2377,-16.33252 5.95148,-10.7416 5.98032,-11.26728 0.40406,-7.3615 -4.93822,3.45886 -28.5141,4.4156 -30.47868,1.23688 -0.63786,-1.0321 3.03844,-5.0821 8.16958,-9 11.2603,-8.59788 20.95576,-9.5102 28.24938,-2.6582 4.61694,4.33738 4.92604,4.36602 10.79098,1 6.0804,-3.48966 19.71376,-4.80624 19.71376,-1.90376 0,0.85884 2.82928,2.62946 6.2873,3.93472 l 6.28728,2.37318 -4.49682,-4.78666 c -6.65102,-7.07968 -3.6303,-9.67582 10.10248,-8.68248 7.67806,0.55538 13.23478,2.17056 16.2448,4.72192 l 4.57496,3.8778 -4,-4.79036 c -2.2,-2.6347 -7.84864,-6.51226 -12.55252,-8.6168 -7.3479,-3.2875 -11.20432,-3.6318 -27.37988,-2.44444 -18.38184,1.34932 -19.1076,1.23618 -30.66968,-4.78124 -10.61386,-5.5239 -12.58392,-5.93566 -18.99126,-3.96918 -5.3627,1.64586 -8.6216,1.58408 -13.04284,-0.24726 -6.84768,-2.8364 -17.69534,-13.48586 -15.73434,-15.44686 2.45196,-2.45196 19.61258,-1.10234 23.01578,1.81012 1.8451,1.57904 10.1127,6.15936 18.37246,10.1785 12.31516,5.9925 17.174,7.29164 27,7.21914 l 11.98228,-0.0884 -7.5383,-3.97904 c -4.39186,-2.3182 -9.99674,-7.91614 -13.42826,-13.4116 l -5.88998,-9.43258 6.0154,-0.63322 c 9.7893,-1.03048 18.34948,5.36634 21.33724,15.9448 l 2.58058,9.13672 10.88264,1.1232 c 5.98546,0.61774 12.04322,2.10776 13.46166,3.31114 1.41846,1.20336 6.37958,4.86 11.0247,8.12582 7.91848,5.56726 14.385,14.99262 19.89038,28.99152 1.2978,3.3 2.4281,4.95418 2.51178,3.67594 0.29334,-4.48054 -5.87578,-33.81612 -10.12812,-48.16156 l -4.29388,-14.48564 -5.19186,5.19184 c -4.54864,4.54864 -6.29942,5.04004 -14.13212,3.96644 -4.91714,-0.67396 -9.77112,-2.05626 -10.78662,-3.07176 -3.0798,-3.0798 0.1618,-7.93056 7.70278,-11.52662 5.74944,-2.74172 8.28676,-2.97308 13.01848,-1.18704 l 5.8772,2.21838 -5.03332,-6.599 c -5.45884,-7.15692 -10.62768,-9.79032 -25.56266,-13.02352 -14.48858,-3.13658 -22.62472,-7.08052 -26.35672,-12.77626 -2.19958,-3.357 -5.85902,-5.51868 -10.65556,-6.29438 -13.1551,-2.12748 -15.71012,-4.10228 -19.30304,-14.91954 -1.87546,-5.64652 -2.80794,-10.8684 -2.07214,-11.60418 0.73578,-0.7358 4.95562,0.74436 9.37742,3.28922 4.42182,2.54488 8.35622,4.31046 8.74316,3.92352 0.38694,-0.38694 1.55812,-5.18378 2.60266,-10.65966 l 1.89912,-9.95616 0.2237,11.3698 c 0.27358,13.90592 2.51298,20.1284 10.59762,29.44696 7.10804,8.1929 11.82618,11.10802 21.25766,13.1342 l 6.63162,1.42468 -6.92466,-9.68782 c -6.22252,-8.70552 -11.29732,-21.357 -11.3274,-28.23918 -0.0202,-4.60838 11.63828,3.10206 18.02826,11.92318 4.63124,6.39324 5.96058,10.3562 5.96058,17.76934 0,8.9413 0.37124,9.62256 5.90626,10.83826 7.72092,1.6958 18.37358,12.8331 24.77064,25.8976 2.81244,5.74376 7.78162,22.97114 11.0426,38.28306 l 5.92906,27.8399 0.1758,-43.45934 0.1758,-43.45934 -7.95878,-4.06028 c -4.37734,-2.23314 -9.37548,-6.79982 -11.10698,-10.14818 -3.96228,-7.6622 -6.33332,-25.87284 -3.36866,-25.87284 3.9798,0 16.48644,16.76462 18.57112,24.89382 1.14332,4.4584 2.40924,9.00618 2.81314,10.10618 0.4039,1.1 0.78594,-9.7 0.84898,-24 l 0.1146,-26 -6.45672,-3 c -3.5512,-1.65 -9.47222,-7.5 -13.15782,-13 l -6.7011,-10 5.4161,-0.6536 c 14.95156,-1.8043 24.86142,10.98328 24.94218,32.18516 l 0.044,11.53154 5.61878,-6.2885 c 4.56846,-5.113 7.55934,-6.47498 16,-7.28602 6.10646,-0.58674 10.38122,-0.1928 10.38122,0.95688 0,3.2468 -11.5922,18.19556 -15.8962,20.49898 -2.21194,1.1838 -6.25102,1.59284 -8.97572,0.909 -7.00922,-1.7592 -7.56442,2.09598 -6.37952,44.29674 0.55362,19.7174 1.12048,43.4998 1.25972,52.8498 l 0.25314,17 4.6453,-22 c 4.53786,-21.49108 9.42182,-37.95842 13.6429,-45.99998 5.29424,-10.08606 14.58498,-19.17938 21.80628,-21.34292 7.41468,-2.2215 7.64432,-2.56586 7.65158,-11.47366 0.008,-10.77108 4.68564,-19.45756 14.51102,-26.95176 8.8084,-6.7185 9.63172,-6.59092 8.18496,1.26834 -1.77434,9.63882 -7.7094,22.50594 -12.66846,27.465 -9.98306,9.98306 6.98066,6.72076 18.31926,-3.52298 9.72678,-8.78758 13.13874,-15.17292 15.41492,-28.84848 l 1.7632,-10.59354 0.23382,8.49942 0.2338,8.49942 9.83928,-5.49348 c 5.4116,-3.0214 10.3372,-4.99554 10.9458,-4.38696 1.86282,1.86284 -2.6021,15.10954 -6.96034,20.65014 -2.26328,2.8773 -5.62474,5.23648 -7.4699,5.24262 -7.196,0.024 -18.3549,4.30526 -18.3549,7.0422 0,3.38096 -12.07042,9.8789 -22,11.84338 -15.69836,3.1058 -25.12618,7.5585 -31,14.6411 -4.81676,5.808 -5.21118,6.91062 -2,5.59126 8.7563,-3.5977 13.05518,-3.42124 19.91346,0.8174 8.75424,5.41044 8.99266,8.99772 0.7881,11.85784 -9.66578,3.36952 -15.4305,2.64854 -20.66334,-2.58432 l -4.77998,-4.77996 -3.06874,7.66956 c -3.11408,7.78284 -11.1895,44.60666 -11.1895,51.02398 0,1.9279 2.73266,-1.96326 6.07256,-8.647 6.0859,-12.17896 19.4644,-26.4866 24.76654,-26.4866 1.55516,0 3.17292,-1.03606 3.59502,-2.30234 0.4221,-1.2663 5.81658,-2.72108 11.98776,-3.23284 10.91718,-0.90534 11.25456,-1.11308 12.48836,-7.68976 1.92274,-10.24904 8.65952,-16.82972 18.59288,-18.16206 4.67328,-0.62682 8.49688,-0.42524 8.49688,0.44794 0,4.85922 -11.17106,19.48254 -17.58052,23.01352 l -7.41948,4.0874 14.35664,-0.80362 c 11.26182,-0.6304 17.08212,-2.2079 27,-7.31786 6.95384,-3.58282 14.13668,-7.82316 15.96184,-9.423 3.52328,-3.0883 20.33026,-4.63532 22.86128,-2.10428 2.1444,2.1444 -6.4254,10.67318 -14.64266,14.5725 -5.90464,2.80194 -8.29202,2.9429 -15.5286,0.91678 -8.83592,-2.4739 -14.14884,-0.67894 -22.92472,7.74506 -2.2838,2.19222 -7.05482,2.52812 -22,1.54886 -10.84632,-0.71068 -22.20686,-0.388 -26.31904,0.74754 -8.74324,2.41438 -20.10824,9.83138 -21.3849,13.95614 -0.56194,1.81556 1.14778,1.0914 4.33042,-1.83418 3.81572,-3.5075 8.1448,-5.0412 15.77436,-5.58854 13.49488,-0.9681 17.85924,1.51782 12.69092,7.22874 -2.01596,2.22762 -7.49488,5.51272 -12.17536,7.30022 -7.91922,3.02436 -8.96992,3.01212 -15.13568,-0.1764 -6.45718,-3.33914 -6.7173,-3.3132 -10.22584,1.01966 -7.4412,9.1895 -15.96332,48.32664 -15.45982,70.99796 l 0.1788,8.05246 2.56644,-9 c 4.68152,-16.41714 11.27352,-30.75932 20.5539,-44.719 11.57496,-17.41124 20.38482,-26.24928 29.42364,-29.51776 3.9041,-1.41174 7.09836,-3.286 7.09836,-4.16502 0,-2.24626 15.52024,-2.005 16.33334,0.2539 0.36666,1.01868 3.08014,2.4508 6.02996,3.18252 4.04926,1.00442 6.24072,0.30562 8.94448,-2.85214 5.76552,-6.73362 16.29766,-5.57168 27.57948,3.04264 11.21566,8.56378 10.10274,10.96522 -5.24828,11.32464 -8.22962,0.1926 -12.77898,-0.9037 -18.75232,-4.51928 -6.633,-4.01484 -7.36864,-4.15824 -4.62784,-0.90208 4.79424,5.6957 9.75794,16.14926 9.62596,20.27226 -0.0634,1.97962 -2.2372,-1.06854 -4.83076,-6.7737 -3.62374,-7.97132 -6.58854,-11.32854 -12.8051,-14.5 -8.67402,-4.42508 -17.40164,-5.25944 -22.2489,-2.1269 -2.44204,1.57818 -2.19006,1.94444 1.35484,1.96938 2.39516,0.016 6.1965,2.37192 8.44744,5.23352 3.91366,4.9754 7.68144,17.98004 5.76464,19.89684 -0.50228,0.50228 -4.88532,-1.17814 -9.74008,-3.73428 -7.50352,-3.95076 -9.16238,-5.97564 -11.06504,-13.50648 l -2.23818,-8.85898 -8.76182,9.01966 c -27.02468,27.82004 -41.47118,70.326 -39.07836,114.98034 1.13446,21.17102 5.63832,43.93476 9.47714,47.9 4.20216,4.34056 0.59754,5.1 -24.20668,5.1 l -26.04612,0 3.09658,-4.72596 z m 13.96842,-108.77404 c -0.76248,-9.625 -2.67646,-23.7916 -4.2533,-31.48134 -2.75756,-13.44778 -11.20154,-35.01866 -13.70816,-35.01866 -0.66548,0 -3.88946,1.38562 -7.1644,3.07916 -4.6358,2.39726 -7.60348,2.63724 -13.40068,1.08366 -7.1702,-1.92154 -7.2965,-1.86888 -3.407,1.42082 14.24678,12.04976 34.41842,47.09714 39.31418,68.30674 1.28346,5.5603 2.7098,10.10962 3.16962,10.10962 0.45982,0 0.2122,-7.875 -0.55026,-17.5 z m 17.02722,-32.7153 c 0,-1.83602 -3.98152,-4.5177 -7.5,-5.0515 -3.03524,-0.46046 -3.24394,1.72286 -0.43334,4.53346 2.41342,2.41342 7.93334,2.77386 7.93334,0.51804 z M 494.798,436.29077 c -4.3045,-3.61894 -17.03246,-29.49006 -14.5084,-29.49006 0.3773,0 4.75988,2.46072 9.73906,5.46824 7.07692,4.27462 9.71414,7.40838 12.08152,14.35628 5.17502,15.18782 2.87398,18.22942 -7.31218,9.66554 z"
       id="path3833"
       inkscape:connector-curvature="0"
       sodipodi:nodetypes="csssssssssscssssscssssscssscsssssssssscsscsscscsssscssssscssssscssscssscscssssscccsssssscsscsscssssssscssscssssscccscssssssssscsssssssssscssssssssssssssssscsssscssscsscssscsssscsssscccssssssssssssssssss" />
  </g>
</svg>
